<svg width="467" height="438" viewBox="0 0 467 438" fill="none" xmlns="http://www.w3.org/2000/svg">
<ellipse rx="233.5" ry="219" transform="matrix(-1 0 0 1 233.5 219)" fill="#FFE5D2"/>
<path fill-rule="evenodd" clip-rule="evenodd" d="M259.015 187.101C259.111 187.017 259.946 187.841 261.379 189.414C262.107 190.192 262.967 191.171 263.877 192.38C264.796 193.578 265.902 194.908 266.939 196.506C267.474 197.295 268.036 198.121 268.62 198.982C269.199 199.849 269.723 200.797 270.307 201.755C271.502 203.657 272.574 205.805 273.739 208.045C275.939 212.589 278.043 217.747 279.719 223.338C281.34 228.945 282.37 234.423 282.985 239.436C283.22 241.953 283.484 244.34 283.511 246.587C283.539 247.71 283.613 248.792 283.596 249.836C283.573 250.877 283.549 251.875 283.527 252.829C283.522 254.74 283.314 256.457 283.192 257.965C283.082 259.475 282.891 260.765 282.701 261.815C282.351 263.917 282.097 265.064 281.969 265.047C281.641 265.003 282.26 260.344 282.208 252.816C282.191 251.874 282.174 250.89 282.157 249.863C282.135 248.837 282.026 247.771 281.965 246.669C281.873 244.46 281.555 242.118 281.279 239.65C280.58 234.735 279.521 229.373 277.929 223.869C276.283 218.382 274.269 213.302 272.192 208.794C271.088 206.573 270.084 204.434 268.967 202.529C268.419 201.57 267.933 200.617 267.397 199.744C266.855 198.873 266.336 198.036 265.84 197.238C261.805 190.889 258.761 187.318 259.015 187.101Z" fill="white"/>
<path fill-rule="evenodd" clip-rule="evenodd" d="M280.144 195.872C280.303 195.731 282.446 197.742 285.172 201.618C286.544 203.548 287.989 205.98 289.396 208.785C290.762 211.608 292.066 214.814 293.106 218.289C294.115 221.773 294.756 225.177 295.139 228.292C295.476 231.414 295.581 234.243 295.473 236.611C295.284 241.35 294.574 244.208 294.365 244.175C294.065 244.138 294.305 241.245 294.153 236.61C294.092 234.293 293.854 231.542 293.435 228.517C292.969 225.497 292.295 222.205 291.317 218.82C290.306 215.445 289.087 212.314 287.843 209.526C286.557 206.756 285.267 204.318 284.064 202.338C281.68 198.365 279.913 196.067 280.144 195.872Z" fill="white"/>
<path fill-rule="evenodd" clip-rule="evenodd" d="M206.156 349.07L204.532 345.742L159.312 380.408L179.04 412.473L224.053 374.394L206.156 349.07Z" fill="#FF7B5B"/>
<path fill-rule="evenodd" clip-rule="evenodd" d="M161.207 381.149L178.538 411.22L179.646 410.724L164.213 382.607L161.207 381.149Z" fill="#D7D4D4"/>
<path fill-rule="evenodd" clip-rule="evenodd" d="M205.263 348.411L161.207 381.148C161.207 381.148 161.392 381.852 162.485 382.285C163.58 382.718 164.213 382.608 164.213 382.608L210.529 350.803C210.529 350.803 207.859 350.18 206.891 349.455C205.921 348.727 205.263 348.411 205.263 348.411Z" fill="#F5F3F3"/>
<path fill-rule="evenodd" clip-rule="evenodd" d="M211.662 349.52L163.385 381.873L179.065 411.687L181.591 415.816L229.869 379.966C229.869 379.966 224.784 372.352 221.731 367.754C218.678 363.157 212.685 352.314 212.359 351.619C212.031 350.925 211.662 349.52 211.662 349.52Z" fill="#FF7B5B"/>
<path fill-rule="evenodd" clip-rule="evenodd" d="M381.913 192.795L383.276 190L421.249 219.11L404.683 246.037L366.884 214.06L381.913 192.795Z" fill="#775298"/>
<path fill-rule="evenodd" clip-rule="evenodd" d="M419.658 219.732L405.106 244.983L404.174 244.568L417.135 220.957L419.658 219.732Z" fill="#D7D4D4"/>
<path fill-rule="evenodd" clip-rule="evenodd" d="M382.664 192.241L419.658 219.732C419.658 219.732 419.502 220.322 418.586 220.686C417.666 221.05 417.134 220.957 417.134 220.957L378.24 194.249C378.24 194.249 380.482 193.727 381.296 193.117C382.109 192.506 382.664 192.241 382.664 192.241Z" fill="#F5F3F3"/>
<path fill-rule="evenodd" clip-rule="evenodd" d="M377.29 193.173L417.829 220.34L404.664 245.377L402.542 248.843L362 218.739C362 218.739 366.271 212.344 368.834 208.483C371.399 204.623 376.431 195.518 376.704 194.935C376.979 194.353 377.29 193.173 377.29 193.173Z" fill="#775298"/>
<path fill-rule="evenodd" clip-rule="evenodd" d="M152.169 73.7659C152.169 73.7659 149.302 75.7567 150.735 79.0761C152.169 82.3955 158.455 92.2419 166.945 91.9094C167.293 91.8971 156.249 73.7659 156.249 73.7659H152.169Z" fill="#FF7B5B"/>
<path fill-rule="evenodd" clip-rule="evenodd" d="M139.18 255.287C139.18 255.287 128.563 245.771 125.163 247.475C121.01 249.559 97.2393 272.927 98.1682 283.936C98.5499 288.444 103.781 284.581 113.103 274.879C122.428 265.179 134.169 269.336 134.169 269.336L139.18 255.287Z" fill="#775298"/>
<path fill-rule="evenodd" clip-rule="evenodd" d="M164.977 271.337L152.159 263.622C152.159 263.622 118.935 294.874 124.125 299.041C128.062 302.201 130.377 299.366 139.7 289.664C149.022 279.965 160.834 285.542 160.834 285.542L164.977 271.337Z" fill="#775298"/>
<path fill-rule="evenodd" clip-rule="evenodd" d="M243.276 168.519L245.68 202.765L192.322 188.818L243.276 168.519Z" fill="#F3A683"/>
<path fill-rule="evenodd" clip-rule="evenodd" d="M192.322 189.997C192.322 189.997 238.995 192.948 245.21 190.867C245.21 190.867 254.331 280.77 238.101 290.469C221.871 300.171 185.449 285.966 185.449 285.966L195.283 266.565L216.486 265.179V230.534L214.965 230.88L192.322 189.997Z" fill="#112129"/>
<path fill-rule="evenodd" clip-rule="evenodd" d="M133.817 251.321C133.817 251.321 122.077 256.172 125.876 267.952C125.876 267.952 165.95 299.479 185.449 292.203C196.374 288.127 208.109 257.029 216.319 230.46L245.21 190.867C245.21 190.867 231.584 191.551 227.039 191.534C218.351 191.501 192.323 189.997 192.323 189.997C192.323 189.997 178.727 261.369 173.882 263.101C169.038 264.831 133.817 251.321 133.817 251.321Z" fill="#22343D"/>
<path fill-rule="evenodd" clip-rule="evenodd" d="M203.198 100.48C203.198 100.48 231.17 74.1487 236.004 67.2183C240.837 60.2893 251.199 37.0768 263.972 27.3762L257.758 14.2104C257.758 14.2104 261.558 12.1324 263.972 17.6742C263.972 17.6742 272.95 -0.339861 275.022 0.00488586C277.096 0.350996 270.88 13.8643 270.88 13.8643C270.88 13.8643 279.515 1.39069 281.931 1.73816C284.345 2.08427 275.715 15.7597 275.715 15.7597C275.715 15.7597 285.382 4.50976 286.764 5.89557C288.145 7.28137 279.167 15.7597 279.167 15.7597C279.167 15.7597 288.835 10.1906 289.872 12.0261C290.908 13.8643 280.203 18.7139 280.203 18.7139C280.203 18.7139 279.167 26.6826 272.607 30.1464C272.607 30.1464 259.617 65.3597 247.876 76.7922L210.16 116.121L203.198 100.48Z" fill="#FFC6B2"/>
<path fill-rule="evenodd" clip-rule="evenodd" d="M169.809 114.127C169.809 114.127 143.305 141.944 136.354 146.728C129.402 151.511 106.172 161.691 96.3852 174.418L83.3216 168.059C83.3216 168.059 81.2151 171.85 86.7168 174.326C86.7168 174.326 68.6771 183.165 69.0044 185.249C69.329 187.331 82.8544 181.221 82.8544 181.221C82.8544 181.221 70.3421 189.767 70.6654 192.194C70.9886 194.621 84.6973 186.088 84.6973 186.088C84.6973 186.088 73.3952 195.682 74.7641 197.08C76.1304 198.48 84.6661 189.553 84.6661 189.553C84.6661 189.553 79.0245 199.201 80.8471 200.257C82.667 201.313 87.601 190.619 87.601 190.619C87.601 190.619 95.5513 189.657 99.0675 183.105C99.0675 183.105 132.31 169.835 143.816 158.162L185.184 128.752L169.809 114.127Z" fill="#FFC6B2"/>
<path fill-rule="evenodd" clip-rule="evenodd" d="M179.745 103.041L166.34 116.206L169.739 131.048C169.739 131.048 182.946 162.859 184.942 170.619C188.045 182.687 183.026 201.086 183.026 201.086C183.026 201.086 205.414 199.221 225.786 198.529C246.156 197.835 252.82 191.251 252.82 191.251C252.82 191.251 235.158 132.23 222.964 115.731C210.768 99.2347 206.332 94.0703 206.332 94.0703L188.377 98.0083L179.745 103.041Z" fill="white"/>
<path fill-rule="evenodd" clip-rule="evenodd" d="M219.085 113.786L233.051 104.832C233.051 104.832 235.185 95.2387 218.342 83.9233L198.591 96.3411L219.085 113.786Z" fill="white"/>
<path fill-rule="evenodd" clip-rule="evenodd" d="M169.165 115.165C161.508 116.243 147.515 135.714 145.955 135.677C145.955 135.677 155.802 151.801 163.603 152.324C163.603 152.324 197.932 111.117 169.165 115.165Z" fill="white"/>
<path fill-rule="evenodd" clip-rule="evenodd" d="M196.194 102.496C196.194 102.496 185.064 94.1529 185.45 90.8267C185.547 89.9887 187.09 88.6288 187.491 87.4215C189.649 80.9258 179.244 64.1885 172.852 60.6606C167.823 57.8863 170.027 57.641 159.443 63.9514C148.86 70.2618 154.89 81.1738 159.616 86.8178C164.084 92.1525 169.201 94.4377 173.805 94.8233L180.351 109.412L196.194 102.496Z" fill="#FFC6B2"/>
<path fill-rule="evenodd" clip-rule="evenodd" d="M176.111 114.078C174.006 108.897 177.992 102.372 185.015 99.4979C192.04 96.6227 199.438 98.4923 201.547 103.67C203.651 108.85 196.583 116.636 192.638 118.25C188.693 119.865 178.215 119.256 176.111 114.078Z" fill="#FFC6B2"/>
<path fill-rule="evenodd" clip-rule="evenodd" d="M159.616 86.818C159.616 86.818 156.006 86.6177 155.606 89.0309C155.204 91.4455 162.222 91.4455 164.83 89.6346L159.616 86.818Z" fill="#FFC6B2"/>
<path fill-rule="evenodd" clip-rule="evenodd" d="M161.421 89.031C160.735 84.6692 156.103 81.4261 156.334 77.1761C158.554 77.1938 159.98 74.4344 158.97 72.0757C158.572 71.1491 157.898 70.3561 157.468 69.4417C157.039 68.5288 156.925 67.3324 157.583 66.8159C157.896 66.572 158.318 66.5298 158.723 66.4889C162.015 66.1496 167.655 67.1402 170.685 66.0133C173.57 64.9409 176.661 62.8547 176.36 59.3092C176.098 56.2214 173.381 53.7183 170.885 51.8269C169.454 50.7423 165.368 47.9066 163.826 48.1642C161.473 48.5566 160.902 51.707 160.733 54.3437C159.087 52.7712 156.658 53.0233 155.227 54.3028C153.795 55.5824 153.118 57.6154 152.494 59.5776C151.87 61.5412 151.208 63.5797 149.796 64.8837C148.48 66.0992 146.398 67.019 146.671 69.0861C146.995 71.5497 150.203 72.4259 151.686 74.5271C151.321 74.012 151.011 77.3014 151.222 77.8587C151.855 79.5389 153.434 80.6508 154.576 81.9358C157.009 84.6747 158.198 87.4326 161.421 89.031Z" fill="#FF7B5B"/>
<path fill-rule="evenodd" clip-rule="evenodd" d="M170.272 80.7494C170.722 81.6052 170.056 82.8424 168.786 83.5129C167.517 84.1833 166.123 84.0334 165.674 83.1776C165.225 82.3219 165.89 81.086 167.159 80.4142C168.431 79.7438 169.823 79.8937 170.272 80.7494Z" fill="#FFB2A0"/>
<path fill-rule="evenodd" clip-rule="evenodd" d="M182.282 72.5185C182.731 73.3742 182.066 74.6115 180.796 75.2819C179.526 75.9523 178.133 75.8024 177.683 74.9467C177.235 74.091 177.899 72.8537 179.169 72.1833C180.44 71.5128 181.832 71.6627 182.282 72.5185Z" fill="#FFB2A0"/>
<path fill-rule="evenodd" clip-rule="evenodd" d="M175.846 78.7546C175.808 78.7069 175.961 78.5038 176.317 78.2463C176.657 77.9833 177.248 77.6999 177.686 77.2257C178.121 76.7665 178.277 75.8086 177.611 75.6737C176.92 75.4379 176.135 76.2337 175.235 76.99C175.012 77.1753 174.792 77.3592 174.573 77.5405C174.37 77.7285 173.941 78.0038 173.495 77.9479C172.646 77.8103 172.285 77.242 171.959 76.8619C171.307 76.0225 170.905 75.1436 170.682 74.3832C170.241 72.8462 170.439 71.8542 170.545 71.8624C170.693 71.8555 170.742 72.8094 171.303 74.1611C171.586 74.8329 172.008 75.596 172.623 76.3168C172.923 76.682 173.301 77.0227 173.57 77.0336C173.682 77.039 173.771 77.0009 173.983 76.8224C174.199 76.6411 174.416 76.4572 174.636 76.2718C175.089 75.9039 175.482 75.5319 176.001 75.1858C176.505 74.8452 177.223 74.6299 177.867 74.8493C178.554 75.0305 178.957 75.8344 178.838 76.3931C178.76 76.9627 178.478 77.3824 178.157 77.689C177.48 78.2572 176.874 78.3948 176.492 78.5665C176.101 78.7151 175.887 78.8077 175.846 78.7546Z" fill="#FF7B5B"/>
<path fill-rule="evenodd" clip-rule="evenodd" d="M173.805 94.8234C173.805 94.8234 179.052 94.8534 181.898 93.0942C181.898 93.0942 179.49 96.0621 174.672 96.8306L173.805 94.8234Z" fill="#FFA192"/>
</svg>

